<svg width="2400" height="769" viewBox="0 0 2400 769" fill="none" xmlns="http://www.w3.org/2000/svg">
<g clip-path="url(#clip0_459_64)">
<path d="M138.241 239.584V591.544H309.224V627.284H100.822V239.584H138.241Z" fill="#F6F0E4"/>
<path d="M334.703 485.925C334.703 409.008 388.752 353.4 462.551 353.4C536.347 353.4 590.397 409.008 590.397 485.925C590.397 562.321 536.347 617.93 462.551 617.93C388.752 617.93 334.703 562.321 334.703 485.925ZM371.083 485.405C371.083 544.651 408.501 585.708 462.551 585.708C516.08 585.708 554.017 544.651 554.017 485.405C554.017 427.198 516.08 385.622 462.551 385.622C408.501 385.622 371.083 427.198 371.083 485.405ZM630.081 486.444C630.081 407.449 678.414 353.4 751.692 353.4C809.899 353.4 852.515 387.181 862.39 439.151H826.53C817.175 404.331 787.032 385.102 752.212 385.102C701.281 385.102 665.421 424.08 665.421 485.925C665.421 545.691 698.682 585.708 749.614 585.708C787.032 585.708 817.175 564.92 827.05 532.698H863.429C851.476 584.149 806.781 617.93 749.614 617.93C678.414 617.93 630.081 565.44 630.081 486.444ZM955.173 611.693H919.313V232.828H955.173V490.082L1079.9 360.156H1125.12L1028.45 460.459L1125.64 611.693H1084.06L1004.03 485.925L955.173 536.336V611.693ZM1221.49 611.693L1138.33 360.156H1175.23L1224.6 511.91C1230.32 528.541 1235 545.691 1240.19 565.959C1244.35 545.691 1252.67 520.225 1255.27 511.91L1305.16 360.156H1342.06L1391.43 511.91C1396.11 525.422 1402.34 547.25 1407.02 565.959C1412.22 545.171 1413.26 538.935 1422.09 511.91L1471.98 360.156H1509.4L1424.17 611.693H1389.35L1337.38 453.703C1331.14 434.994 1326.99 419.402 1323.87 404.331C1320.23 417.843 1316.07 432.915 1309.32 453.703L1257.35 611.693H1221.49ZM1525.36 485.925C1525.36 409.008 1579.41 353.4 1653.2 353.4C1727 353.4 1781.05 409.008 1781.05 485.925C1781.05 562.321 1727 617.93 1653.2 617.93C1579.41 617.93 1525.36 562.321 1525.36 485.925ZM1561.74 485.405C1561.74 544.651 1599.16 585.708 1653.2 585.708C1706.73 585.708 1744.67 544.651 1744.67 485.405C1744.67 427.198 1706.73 385.622 1653.2 385.622C1599.16 385.622 1561.74 427.198 1561.74 485.405ZM1820.74 485.925C1820.74 409.008 1874.79 353.4 1948.58 353.4C2022.38 353.4 2076.43 409.008 2076.43 485.925C2076.43 562.321 2022.38 617.93 1948.58 617.93C1874.79 617.93 1820.74 562.321 1820.74 485.925ZM1857.12 485.405C1857.12 544.651 1894.54 585.708 1948.58 585.708C2002.11 585.708 2040.05 544.651 2040.05 485.405C2040.05 427.198 2002.11 385.622 1948.58 385.622C1894.54 385.622 1857.12 427.198 1857.12 485.405ZM2232.53 617.93C2159.25 617.93 2116.12 561.802 2116.12 486.444C2116.12 410.567 2159.25 353.4 2234.09 353.4C2275.67 353.4 2308.93 371.589 2326.6 407.969V232.828H2362.46V611.693H2331.27L2327.64 560.243C2309.97 599.22 2274.63 617.93 2232.53 617.93ZM2238.77 585.188C2293.86 585.188 2326.08 543.612 2326.08 485.405C2326.08 427.718 2293.86 385.622 2238.77 385.622C2184.2 385.622 2152.5 427.718 2152.5 485.405C2152.5 543.612 2184.2 585.188 2238.77 585.188Z" fill="#F6F0E4"/>
<path d="M120.052 141.799L224.02 344.154H16.084L120.052 141.799Z" fill="#173213"/>
<path d="M120.052 86.6387L198.028 244.027H42.0762L120.052 86.6387Z" fill="#233F1F"/>
<path d="M120.652 35.9746L185.632 170.878H55.6719L120.652 35.9746Z" fill="#354833"/>
<path d="M120.053 0L159.041 89.9361H81.0645L120.053 0Z" fill="#444D43"/>
<path d="M119.537 627.24L119 344" stroke="#291A09" stroke-width="38"/>
<path d="M1212.25 766.493H1205.72L1241.55 669.974H1251.22L1287.46 766.493H1280.78L1270.56 739.443H1222.34L1212.25 766.493ZM1245.5 676.907L1224.51 733.461H1268.38L1247.13 676.907C1246.86 676.091 1246.45 675.14 1246.31 674.459C1246.18 675.004 1245.77 676.226 1245.5 676.907ZM1374.62 730.197H1345.06V766.493H1338.52V669.974H1374.62C1393.01 669.974 1404.32 681.937 1404.32 699.883C1404.32 716.872 1392.88 730.197 1374.62 730.197ZM1374.35 675.955H1345.06V724.215H1373.53C1388.65 724.215 1397.64 714.019 1397.64 699.607C1397.64 685.061 1388.52 675.955 1374.35 675.955ZM1450.25 766.493H1443.71L1479.54 669.974H1489.21L1525.45 766.493H1518.77L1508.55 739.443H1460.33L1450.25 766.493ZM1483.49 676.907L1462.51 733.461H1506.38L1485.13 676.907C1484.86 676.091 1484.45 675.14 1484.31 674.459C1484.17 675.004 1483.76 676.226 1483.49 676.907ZM1583.05 766.493H1576.52V669.974H1612.21C1630.6 669.974 1642.18 680.576 1642.18 697.024C1642.18 711.166 1634.28 721.222 1621.34 723.945L1643 766.493H1635.64L1614.52 724.761H1583.05V766.493ZM1583.05 675.955V718.779H1612.48C1627.06 718.779 1635.5 710.62 1635.5 697.3C1635.5 683.569 1626.38 675.955 1612.21 675.955H1583.05ZM1686.48 675.955V669.974H1753.78V675.955H1723.4V766.493H1716.86V675.955H1686.48ZM1810.67 766.493H1804.14V669.974H1810.67L1847.73 758.609L1884.65 669.974H1891.32V766.493H1884.78V713.613C1884.78 697.84 1885.06 689.686 1885.47 683.294L1851 766.493H1844.46L1809.99 683.704C1810.26 686.422 1810.67 697.705 1810.67 713.613V766.493ZM2009.61 766.493H1952.67V669.974H2009.48V675.955H1959.21V715.105H2004.98V721.087H1959.21V760.512H2009.61V766.493ZM2073.41 766.493H2066.87V669.974H2073.55L2130.22 755.481V669.974H2136.76V766.493H2130.22L2073.41 680.711V766.493ZM2187.22 675.955V669.974H2254.51V675.955H2224.13V766.493H2217.59V675.955H2187.22ZM2298.88 694.306C2298.88 678.538 2311.28 668.342 2330.34 668.342C2346.96 668.342 2358 677.587 2359.9 693.085H2353.1C2351.74 681.121 2343.56 674.324 2330.34 674.324C2315.36 674.324 2305.41 682.208 2305.41 694.306C2305.41 703.552 2311 709.669 2322.03 712.522L2339.2 716.872C2353.78 720.546 2361.54 729.246 2361.54 741.615C2361.54 757.794 2349.01 768.125 2329.66 768.125C2311.55 768.125 2299.29 758.745 2297.79 743.658H2304.73C2305.28 754.665 2315.23 762.008 2329.66 762.008C2345.06 762.008 2355 754.124 2355 741.75C2355 732.234 2349.42 725.847 2337.97 722.994L2321.22 718.779C2306.64 715.105 2298.88 706.816 2298.88 694.306Z" fill="#F6F0E4"/>
</g>
<defs>
<clipPath id="clip0_459_64">
<rect width="2400" height="768.125" fill="white"/>
</clipPath>
</defs>
</svg>
